<?xml version="1.0" encoding="UTF-8"?>
<svg id="SVGDoc" width="37" height="38" xmlns="http://www.w3.org/2000/svg" version="1.1" xmlns:xlink="http://www.w3.org/1999/xlink" xmlns:avocode="https://avocode.com/" viewBox="0 0 37 38"><defs></defs><desc>Generated with Avocode.</desc><g><g><title>Vector</title><path d="M36.699,34.8235l-3.1231,3.243l-10.4799,-10.8606v-1.7194l-0.566,-0.6094c-2.3894,2.1329 -5.4915,3.417 -8.866,3.417c-7.52465,0 -13.624,-6.3335 -13.624,-14.147c0,-7.81357 6.09935,-14.1471 13.624,-14.1471c7.5246,0 13.6239,6.33353 13.6239,14.1471c0,3.5041 -1.2366,6.7253 -3.2907,9.2064l0.5869,0.5877h1.6559zM23.096,14.1471c0,-5.41945 -4.213,-9.79416 -9.432,-9.79416c-5.21906,0 -9.43201,4.37471 -9.43201,9.79416c0,5.4194 4.21295,9.7941 9.43201,9.7941c5.219,0 9.432,-4.3747 9.432,-9.7941z" fill="#d7d7d7" fill-opacity="1"></path></g></g></svg>